<?xml version="1.0" encoding="UTF-8"?> <!-- Generator: Adobe Illustrator 22.0.1, SVG Export Plug-In . SVG Version: 6.00 Build 0) --> <svg xmlns="http://www.w3.org/2000/svg" xmlns:xlink="http://www.w3.org/1999/xlink" id="Layer_1" x="0px" y="0px" viewBox="0 0 100.5 100.5" style="enable-background:new 0 0 100.5 100.5;" xml:space="preserve"> <style type="text/css"> .st0{fill:#FFFFFF;} </style> <g> <path class="st0" d="M87.7,11.6H26.6c-3.6,0-6.6,2.6-6.7,5.9v12.8c0,0.8,0.7,1.5,1.5,1.5s1.5-0.7,1.5-1.5V17.5 c0-1.6,1.7-2.9,3.7-2.9h61.1c2,0,3.7,1.3,3.7,3v48.9c0,1.6-1.6,3-3.7,3H26.6c-2,0-3.7-1.3-3.7-3v-7c0-0.8-0.7-1.5-1.5-1.5 s-1.5,0.7-1.5,1.5v7c0,3.3,3,6,6.7,6h28.8v12.9h-19c-0.8,0-1.5,0.7-1.5,1.5s0.7,1.5,1.5,1.5h40.9c0.8,0,1.5-0.7,1.5-1.5 s-0.7-1.5-1.5-1.5H58.4V72.5h29.3c3.7,0,6.7-2.7,6.7-6V17.6C94.3,14.3,91.3,11.6,87.7,11.6z"></path> <path class="st0" d="M47.1,36.1h32.2c0.8,0,1.5-0.7,1.5-1.5s-0.7-1.5-1.5-1.5H47.1c-0.8,0-1.5,0.7-1.5,1.5S46.3,36.1,47.1,36.1z"></path> <path class="st0" d="M47.1,45.6h32.2c0.8,0,1.5-0.7,1.5-1.5s-0.7-1.5-1.5-1.5H47.1c-0.8,0-1.5,0.7-1.5,1.5S46.3,45.6,47.1,45.6z"></path> <path class="st0" d="M47.1,55.6h32.2c0.8,0,1.5-0.7,1.5-1.5s-0.7-1.5-1.5-1.5H47.1c-0.8,0-1.5,0.7-1.5,1.5S46.3,55.6,47.1,55.6z"></path> <path class="st0" d="M21.1,48.7c0.4,0,0.8-0.1,1.1-0.4l21.7-21.7c0.6-0.6,0.6-1.5,0-2.1c-0.6-0.6-1.5-0.6-2.1,0L20.9,45.3L8,36.1 c-0.7-0.5-1.6-0.3-2.1,0.4c-0.5,0.7-0.3,1.6,0.4,2.1l13.9,9.9C20.5,48.6,20.8,48.7,21.1,48.7z"></path> </g> </svg> 